# xmcd CD database file
#
# Track frame offsets:
#	150
#	25262
#	43857
#	63845
#	83735
#	104870
#	123980
#	148737
#	164050
#	189250
#	202065
#	221052
#
# Disc length: 3190 seconds
#
# Revision: 0
# Processed by: cddbd v1.5.1PL0 Copyright (c) Steve Scherf et al.
# Submitted via: CDex 1.51
#
DISCID=b80c740c
DTITLE=Nazca - The Spiritual Healing (Pan Flute Relaxation)
DYEAR=2002
DGENRE=New Age
TTITLE0=You Are Not Alone (Kelly)
TTITLE1=Hello (Richie L. )
TTITLE2=You And Me In Paradise (Trad. )
TTITLE3=Historia De Un Dia (Almaran C.)
TTITLE4=Hey Jude (Lennon-Mc Cartney)
TTITLE5=Lady In Red (Deburgh)
TTITLE6=Chiquitita (Trad. )
TTITLE7=Blue Eyes (E. John-G. Hosborne)
TTITLE8=Careless Whisper (G. Michael-A Ridely)
TTITLE9=Am I Love Her (Lennon-Mc Cartney)
TTITLE10=Hero (F. Collins-D. Crosby)
TTITLE11=I Will Always Love You (R. Gibb)
EXTD=YEAR: 2002
EXTT0=
EXTT1=
EXTT2=
EXTT3=
EXTT4=
EXTT5=
EXTT6=
EXTT7=
EXTT8=
EXTT9=
EXTT10=
EXTT11=
PLAYORDER=
